<?xml version="1.0" encoding="utf-8"?>
<!-- Generator: Adobe Illustrator 23.0.5, SVG Export Plug-In . SVG Version: 6.00 Build 0)  -->
<svg version="1.1" id="Layer_1" xmlns="http://www.w3.org/2000/svg" xmlns:xlink="http://www.w3.org/1999/xlink" x="0px" y="0px"
	 viewBox="0 0 100 100" style="enable-background:new 0 0 100 100;" xml:space="preserve">
<style type="text/css">
	.st0{fill:#F58220;}
</style>
<g>
	<path class="st0" d="M50,81.2c3.2,0,5.9,2.6,5.9,5.8c0,1.6-0.6,3.1-1.7,4.2c-1.1,1.1-2.6,1.8-4.2,1.8L50,93c-3.2,0-5.9-2.6-5.9-5.8
		c0-1.6,0.6-3.1,1.7-4.2C46.9,81.9,48.3,81.2,50,81.2L50,81.2 M50,78.2c0,0-0.1,0-0.1,0c-4.9,0.1-8.9,4.1-8.8,9
		c0.1,4.9,4,8.8,8.9,8.8c0,0,0.1,0,0.1,0c4.9-0.1,8.9-4.1,8.8-9C58.8,82.1,54.9,78.2,50,78.2L50,78.2z"/>
</g>
<g>
	<circle cx="50" cy="87.1" r="8.9"/>
</g>
</svg>
