<?xml version="1.0" encoding="utf-8"?>
<!-- Generator: Adobe Illustrator 23.0.5, SVG Export Plug-In . SVG Version: 6.00 Build 0)  -->
<svg version="1.1" id="Layer_1" xmlns="http://www.w3.org/2000/svg" xmlns:xlink="http://www.w3.org/1999/xlink" x="0px" y="0px"
	 viewBox="0 0 100 100" style="enable-background:new 0 0 100 100;" xml:space="preserve">
<style type="text/css">
	.st0{fill:#F58220;}
	.st1{fill:#FFFFFF;}
	.st2{fill:none;stroke:#F58220;stroke-width:3;stroke-miterlimit:10;}
</style>
<g>
	<path class="st0" d="M50,81.2c3.21,0,5.86,2.61,5.9,5.82c0.02,1.58-0.57,3.07-1.67,4.19c-1.1,1.13-2.57,1.76-4.15,1.78L50,93
		c-3.21,0-5.86-2.61-5.9-5.82c-0.02-1.58,0.57-3.07,1.67-4.19c1.1-1.13,2.57-1.76,4.15-1.78L50,81.2 M50,78.2c-0.04,0-0.08,0-0.12,0
		c-4.91,0.06-8.85,4.1-8.79,9.01C41.16,92.09,45.14,96,50,96c0.04,0,0.08,0,0.12,0c4.91-0.06,8.85-4.1,8.79-9.01
		C58.84,82.11,54.86,78.2,50,78.2L50,78.2z"/>
</g>
<g>
	<path class="st1" d="M49.99,73.01c-18.23,0-33.26-14.84-33.49-33.07C16.27,21.46,31.1,6.25,49.57,6.01l0.44,0
		c18.23,0,33.25,14.84,33.49,33.07C83.73,57.55,68.9,72.77,50.43,73L49.99,73.01z"/>
	<path class="st0" d="M50.01,4.51v3C67.43,7.51,81.77,21.68,82,39.1c0.11,8.55-3.12,16.62-9.08,22.75s-13.96,9.55-22.51,9.66
		c-0.14,0-0.28,0-0.42,0c-17.42,0-31.77-14.17-31.99-31.59C17.78,22.27,31.95,7.73,49.59,7.51c0.14,0,0.28,0,0.42,0L50.01,4.51
		 M50.01,4.51c-0.15,0-0.3,0-0.46,0C30.22,4.76,14.76,20.63,15,39.95c0.25,19.18,15.87,34.55,34.99,34.55c0.15,0,0.3,0,0.46,0
		C69.78,74.26,85.24,58.39,85,39.06C84.75,19.88,69.13,4.51,50.01,4.51L50.01,4.51z"/>
</g>
<line class="st2" x1="50" y1="80.5" x2="50" y2="72.5"/>
</svg>
